# xmcd
#
# Track frame offsets:
#	150
#	18417
#	36205
#	50172
#	62882
#	83397
#	99272
#	121285
#	136157
#	154292
#	171762
#	187205
#	203060
#	216390
#
# Disc length: 3069 seconds
#
# Revision: 4
# Processed by: cddbd v1.5.2PL0 Copyright (c) Steve Scherf et al.
# Submitted via: audiograbber 1.83.01
#
DISCID=c40bfb0e
DTITLE=Various Artist - SD031
DYEAR=1900
DGENRE=Country
TTITLE0=George Strait - I Can Still Make Cheyenne
TTITLE1=Brooks and Dunn - Mama Dont Get Dressed Up For Nothing
TTITLE2=Reba McEntire - The Fear Of Being Alone
TTITLE3=John Michael Montgomery - Aint Got Nothing On Us
TTITLE4=Patty Loveless - Lonely Too Long
TTITLE5=Paul Brandt - I Do
TTITLE6=Wynonna - My Angel Is Here
TTITLE7=Lee Roy Parnell - We All Get Lucky Sometimes
TTITLE8=Deana Carter - Strawberry Wine
TTITLE9=Western Flyer - What Will You Do With M-E
TTITLE10=Rhett Atkins - Love You Back
TTITLE11=Martina McBride - Swinging Doors
TTITLE12=Trace Adkins - Every Light In The House Is On
TTITLE13=Wade Hayes - Where Do I Go To Start All Over
EXTD=
EXTT0=
EXTT1=
EXTT2=
EXTT3=
EXTT4=
EXTT5=
EXTT6=
EXTT7=
EXTT8=
EXTT9=
EXTT10=
EXTT11=
EXTT12=
EXTT13=
PLAYORDER=
